<svg xmlns="http://www.w3.org/2000/svg" xmlns:xlink="http://www.w3.org/1999/xlink" width="150" zoomAndPan="magnify" viewBox="0 0 112.5 112.499997" height="150" preserveAspectRatio="xMidYMid meet" version="1.0"><path fill="#000000" d="M 56.015625 0.171875 C 54.1875 0.171875 52.359375 0.261719 50.542969 0.441406 C 48.722656 0.621094 46.914062 0.886719 45.121094 1.246094 C 43.328125 1.601562 41.554688 2.046875 39.804688 2.578125 C 38.054688 3.109375 36.335938 3.722656 34.644531 4.421875 C 32.953125 5.121094 31.304688 5.902344 29.691406 6.765625 C 28.078125 7.628906 26.511719 8.566406 24.992188 9.582031 C 23.46875 10.597656 22.003906 11.6875 20.589844 12.847656 C 19.175781 14.007812 17.820312 15.234375 16.527344 16.527344 C 15.234375 17.820312 14.007812 19.175781 12.847656 20.589844 C 11.6875 22.003906 10.597656 23.46875 9.582031 24.992188 C 8.566406 26.511719 7.628906 28.078125 6.765625 29.691406 C 5.902344 31.304688 5.121094 32.953125 4.421875 34.644531 C 3.722656 36.335938 3.109375 38.054688 2.578125 39.804688 C 2.046875 41.554688 1.601562 43.328125 1.246094 45.121094 C 0.886719 46.914062 0.621094 48.722656 0.441406 50.542969 C 0.261719 52.359375 0.171875 54.1875 0.171875 56.015625 C 0.171875 57.84375 0.261719 59.667969 0.441406 61.488281 C 0.621094 63.308594 0.886719 65.113281 1.246094 66.910156 C 1.601562 68.703125 2.046875 70.472656 2.578125 72.226562 C 3.109375 73.976562 3.722656 75.695312 4.421875 77.382812 C 5.121094 79.074219 5.902344 80.726562 6.765625 82.339844 C 7.628906 83.953125 8.566406 85.519531 9.582031 87.039062 C 10.597656 88.558594 11.6875 90.027344 12.847656 91.441406 C 14.007812 92.855469 15.234375 94.207031 16.527344 95.5 C 17.820312 96.792969 19.175781 98.019531 20.589844 99.179688 C 22.003906 100.339844 23.46875 101.429688 24.992188 102.445312 C 26.511719 103.460938 28.078125 104.402344 29.691406 105.261719 C 31.304688 106.125 32.953125 106.90625 34.644531 107.605469 C 36.335938 108.304688 38.054688 108.921875 39.804688 109.453125 C 41.554688 109.984375 43.328125 110.425781 45.121094 110.785156 C 46.914062 111.140625 48.722656 111.410156 50.542969 111.585938 C 52.359375 111.765625 54.1875 111.855469 56.015625 111.855469 C 57.84375 111.855469 59.667969 111.765625 61.488281 111.585938 C 63.308594 111.410156 65.113281 111.140625 66.910156 110.785156 C 68.703125 110.425781 70.472656 109.984375 72.226562 109.453125 C 73.976562 108.921875 75.695312 108.304688 77.382812 107.605469 C 79.074219 106.90625 80.726562 106.125 82.339844 105.261719 C 83.953125 104.402344 85.519531 103.460938 87.039062 102.445312 C 88.558594 101.429688 90.027344 100.339844 91.441406 99.179688 C 92.855469 98.019531 94.207031 96.792969 95.5 95.5 C 96.792969 94.207031 98.019531 92.855469 99.179688 91.441406 C 100.339844 90.027344 101.429688 88.558594 102.445312 87.039062 C 103.460938 85.519531 104.402344 83.953125 105.261719 82.339844 C 106.125 80.726562 106.90625 79.074219 107.605469 77.382812 C 108.304688 75.695312 108.921875 73.976562 109.453125 72.226562 C 109.984375 70.472656 110.425781 68.703125 110.785156 66.910156 C 111.140625 65.113281 111.410156 63.308594 111.585938 61.488281 C 111.765625 59.667969 111.855469 57.84375 111.855469 56.015625 C 111.855469 54.1875 111.765625 52.359375 111.585938 50.542969 C 111.410156 48.722656 111.140625 46.914062 110.785156 45.121094 C 110.425781 43.328125 109.984375 41.554688 109.453125 39.804688 C 108.921875 38.054688 108.304688 36.335938 107.605469 34.644531 C 106.90625 32.953125 106.125 31.304688 105.261719 29.691406 C 104.402344 28.078125 103.460938 26.511719 102.445312 24.992188 C 101.429688 23.46875 100.339844 22.003906 99.179688 20.589844 C 98.019531 19.175781 96.792969 17.820312 95.5 16.527344 C 94.207031 15.234375 92.855469 14.007812 91.441406 12.847656 C 90.027344 11.6875 88.558594 10.597656 87.039062 9.582031 C 85.519531 8.566406 83.953125 7.628906 82.339844 6.765625 C 80.726562 5.902344 79.074219 5.121094 77.382812 4.421875 C 75.695312 3.722656 73.976562 3.109375 72.226562 2.578125 C 70.472656 2.046875 68.703125 1.601562 66.910156 1.246094 C 65.113281 0.886719 63.308594 0.621094 61.488281 0.441406 C 59.667969 0.261719 57.84375 0.171875 56.015625 0.171875 Z M 74.832031 74.832031 C 74.597656 75.070312 74.339844 75.28125 74.0625 75.464844 C 73.785156 75.648438 73.496094 75.804688 73.1875 75.933594 C 72.878906 76.0625 72.5625 76.15625 72.234375 76.222656 C 71.90625 76.289062 71.578125 76.320312 71.246094 76.320312 C 70.910156 76.320312 70.582031 76.289062 70.253906 76.222656 C 69.925781 76.15625 69.609375 76.0625 69.300781 75.933594 C 68.992188 75.804688 68.703125 75.648438 68.425781 75.464844 C 68.148438 75.28125 67.890625 75.070312 67.65625 74.832031 L 52.425781 59.605469 C 51.949219 59.128906 51.582031 58.578125 51.324219 57.957031 C 51.066406 57.335938 50.9375 56.6875 50.9375 56.015625 L 50.9375 25.554688 C 50.9375 25.222656 50.96875 24.890625 51.035156 24.566406 C 51.101562 24.238281 51.195312 23.921875 51.324219 23.613281 C 51.453125 23.304688 51.609375 23.011719 51.792969 22.734375 C 51.980469 22.457031 52.1875 22.203125 52.425781 21.964844 C 52.660156 21.730469 52.917969 21.519531 53.195312 21.335938 C 53.472656 21.148438 53.765625 20.992188 54.070312 20.863281 C 54.378906 20.738281 54.695312 20.640625 55.023438 20.578125 C 55.351562 20.511719 55.679688 20.480469 56.015625 20.480469 C 56.347656 20.480469 56.679688 20.511719 57.003906 20.578125 C 57.332031 20.640625 57.648438 20.738281 57.957031 20.863281 C 58.265625 20.992188 58.558594 21.148438 58.835938 21.335938 C 59.113281 21.519531 59.367188 21.730469 59.605469 21.964844 C 59.839844 22.203125 60.050781 22.457031 60.234375 22.734375 C 60.421875 23.011719 60.578125 23.304688 60.703125 23.613281 C 60.832031 23.921875 60.929688 24.238281 60.992188 24.566406 C 61.058594 24.890625 61.089844 25.222656 61.089844 25.554688 L 61.089844 53.914062 L 74.832031 67.65625 C 75.070312 67.890625 75.28125 68.148438 75.464844 68.425781 C 75.648438 68.703125 75.804688 68.992188 75.933594 69.300781 C 76.0625 69.609375 76.15625 69.925781 76.222656 70.253906 C 76.289062 70.582031 76.320312 70.910156 76.320312 71.246094 C 76.320312 71.578125 76.289062 71.90625 76.222656 72.234375 C 76.15625 72.5625 76.0625 72.878906 75.933594 73.1875 C 75.804688 73.496094 75.648438 73.785156 75.464844 74.0625 C 75.28125 74.339844 75.070312 74.597656 74.832031 74.832031 Z M 74.832031 74.832031 " fill-opacity="1" fill-rule="nonzero"/></svg>