<svg xmlns="http://www.w3.org/2000/svg" xmlns:xlink="http://www.w3.org/1999/xlink" width="150" zoomAndPan="magnify" viewBox="0 0 112.5 112.499997" height="150" preserveAspectRatio="xMidYMid meet" version="1.0"><defs><clipPath id="de6e44030d"><path d="M 0 0 L 112.003906 0 L 112.003906 112.003906 L 0 112.003906 Z M 0 0 " clip-rule="nonzero"/></clipPath></defs><g clip-path="url(#de6e44030d)"><path fill="#000000" d="M 98.316406 0 C 105.871094 0 112.003906 6.132812 112.003906 13.683594 L 112.003906 98.316406 C 112.003906 105.871094 105.871094 112.003906 98.316406 112.003906 L 75.027344 112.003906 L 75.027344 69.800781 L 89.597656 69.800781 L 92.367188 51.726562 L 75.027344 51.726562 L 75.027344 40 C 75.027344 35.054688 77.449219 30.234375 85.21875 30.234375 L 93.101562 30.234375 L 93.101562 14.847656 C 93.101562 14.847656 85.945312 13.625 79.105469 13.625 C 64.824219 13.625 55.488281 22.28125 55.488281 37.953125 L 55.488281 51.726562 L 39.613281 51.726562 L 39.613281 69.800781 L 55.488281 69.800781 L 55.488281 112.003906 L 13.683594 112.003906 C 6.132812 112.003906 0 105.871094 0 98.316406 L 0 13.683594 C 0 6.132812 6.132812 0 13.683594 0 Z M 98.316406 0 " fill-opacity="1" fill-rule="evenodd"/></g></svg>