<svg xmlns="http://www.w3.org/2000/svg" xmlns:xlink="http://www.w3.org/1999/xlink" width="150" zoomAndPan="magnify" viewBox="0 0 112.5 112.499997" height="150" preserveAspectRatio="xMidYMid meet" version="1.0"><defs><clipPath id="0b8e51da8c"><path d="M 0 0 L 112.003906 0 L 112.003906 112.003906 L 0 112.003906 Z M 0 0 " clip-rule="nonzero"/></clipPath></defs><g clip-path="url(#0b8e51da8c)"><path fill="#000000" d="M 42 14 L 85.203125 14 L 91 19.800781 L 91 35 L 105.003906 35 L 105.003906 16.898438 C 105.003906 15.042969 104.265625 13.261719 102.953125 11.949219 L 93.050781 2.050781 C 91.746094 0.738281 89.953125 0 88.113281 0 L 35 0 C 31.128906 0 28 3.132812 28 7 L 28 35 L 42 35 Z M 14 28 L 7 28 C 3.144531 28 0 31.152344 0 35 L 0 105.003906 C 0 108.855469 3.144531 112.003906 7 112.003906 L 14 112.003906 C 17.855469 112.003906 21 108.855469 21 105.003906 L 21 35 C 21 31.152344 17.855469 28 14 28 Z M 105.003906 42 L 28 42 L 28 105.003906 C 28 108.851562 31.152344 112.003906 35 112.003906 L 105.003906 112.003906 C 108.851562 112.003906 112.003906 108.851562 112.003906 105.003906 L 112.003906 49 C 112.003906 45.152344 108.851562 42 105.003906 42 Z M 63 94.5 C 63 96.441406 61.441406 98 59.5 98 L 52.5 98 C 50.554688 98 49 96.449219 49 94.5 L 49 87.5 C 49 85.554688 50.554688 84 52.5 84 L 59.5 84 C 61.441406 84 63 85.558594 63 87.5 Z M 63 66.5 C 63 68.441406 61.441406 70 59.5 70 L 52.5 70 C 50.554688 70 49 68.449219 49 66.5 L 49 59.5 C 49 57.554688 50.554688 56 52.5 56 L 59.5 56 C 61.449219 56 63 57.554688 63 59.5 Z M 91 94.5 C 91 96.441406 89.441406 98 87.5 98 L 80.5 98 C 78.558594 98 77 96.441406 77 94.5 L 77 87.5 C 77 85.558594 78.558594 84 80.5 84 L 87.5 84 C 89.441406 84 91 85.558594 91 87.5 Z M 91 66.5 C 91 68.441406 89.441406 70 87.5 70 L 80.5 70 C 78.554688 70 77 68.449219 77 66.5 L 77 59.5 C 77 57.554688 78.554688 56 80.5 56 L 87.5 56 C 89.449219 56 91 57.554688 91 59.5 Z M 91 66.5 " fill-opacity="1" fill-rule="nonzero"/></g></svg>