<svg xmlns="http://www.w3.org/2000/svg" xmlns:xlink="http://www.w3.org/1999/xlink" width="150" zoomAndPan="magnify" viewBox="0 0 112.5 112.499997" height="150" preserveAspectRatio="xMidYMid meet" version="1.0"><path fill="#000000" d="M 56 42.519531 C 55.125 42.519531 54.257812 42.605469 53.398438 42.777344 C 52.542969 42.949219 51.707031 43.199219 50.898438 43.535156 C 50.089844 43.871094 49.320312 44.28125 48.59375 44.765625 C 47.867188 45.25 47.191406 45.800781 46.574219 46.417969 C 45.957031 47.039062 45.402344 47.710938 44.917969 48.4375 C 44.429688 49.160156 44.019531 49.929688 43.683594 50.734375 C 43.351562 51.542969 43.097656 52.375 42.925781 53.230469 C 42.757812 54.085938 42.671875 54.953125 42.671875 55.824219 C 42.671875 56.699219 42.757812 57.5625 42.929688 58.421875 C 43.097656 59.277344 43.351562 60.109375 43.6875 60.914062 C 44.023438 61.722656 44.433594 62.488281 44.921875 63.214844 C 45.40625 63.941406 45.960938 64.613281 46.578125 65.230469 C 47.199219 65.847656 47.871094 66.398438 48.601562 66.882812 C 49.328125 67.371094 50.097656 67.777344 50.90625 68.113281 C 51.714844 68.445312 52.546875 68.699219 53.40625 68.871094 C 54.265625 69.039062 55.132812 69.125 56.007812 69.125 C 56.882812 69.125 57.75 69.039062 58.609375 68.867188 C 59.46875 68.699219 60.300781 68.445312 61.109375 68.113281 C 61.917969 67.777344 62.6875 67.367188 63.414062 66.882812 C 64.144531 66.398438 64.816406 65.84375 65.4375 65.226562 C 66.054688 64.609375 66.609375 63.9375 67.09375 63.210938 C 67.582031 62.484375 67.992188 61.71875 68.324219 60.914062 C 68.660156 60.105469 68.914062 59.273438 69.085938 58.417969 C 69.253906 57.5625 69.339844 56.695312 69.339844 55.824219 C 69.339844 54.949219 69.253906 54.085938 69.082031 53.226562 C 68.910156 52.371094 68.65625 51.539062 68.324219 50.734375 C 67.988281 49.925781 67.574219 49.160156 67.089844 48.433594 C 66.601562 47.707031 66.050781 47.035156 65.429688 46.417969 C 64.8125 45.800781 64.136719 45.25 63.410156 44.765625 C 62.679688 44.277344 61.914062 43.867188 61.105469 43.535156 C 60.296875 43.199219 59.460938 42.949219 58.601562 42.777344 C 57.742188 42.605469 56.875 42.519531 56 42.519531 Z M 87.179688 32.296875 C 86.492188 30.5625 85.488281 29.035156 84.167969 27.71875 C 82.84375 26.398438 81.3125 25.398438 79.574219 24.710938 C 74.324219 22.644531 61.824219 23.109375 56 23.109375 C 50.175781 23.109375 37.6875 22.628906 32.425781 24.710938 C 30.683594 25.398438 29.15625 26.398438 27.832031 27.71875 C 26.511719 29.035156 25.507812 30.5625 24.820312 32.296875 C 22.75 37.53125 23.214844 50.015625 23.214844 55.820312 C 23.214844 61.625 22.75 74.09375 24.832031 79.347656 C 25.519531 81.082031 26.523438 82.609375 27.84375 83.925781 C 29.164062 85.246094 30.695312 86.246094 32.433594 86.929688 C 37.683594 88.996094 50.183594 88.535156 56.011719 88.535156 C 61.839844 88.535156 74.320312 89.015625 79.585938 86.929688 C 81.324219 86.246094 82.855469 85.246094 84.175781 83.925781 C 85.496094 82.609375 86.5 81.082031 87.1875 79.347656 C 89.277344 74.109375 88.796875 61.628906 88.796875 55.824219 C 88.796875 50.015625 89.277344 37.554688 87.1875 32.296875 Z M 56 76.273438 C 55.328125 76.273438 54.660156 76.238281 53.992188 76.171875 C 53.324219 76.109375 52.660156 76.007812 52 75.878906 C 51.34375 75.75 50.691406 75.585938 50.050781 75.390625 C 49.40625 75.195312 48.777344 74.972656 48.15625 74.714844 C 47.535156 74.457031 46.929688 74.171875 46.335938 73.855469 C 45.746094 73.542969 45.171875 73.199219 44.613281 72.824219 C 44.054688 72.453125 43.515625 72.054688 42.996094 71.628906 C 42.476562 71.207031 41.980469 70.757812 41.503906 70.28125 C 41.03125 69.808594 40.582031 69.3125 40.15625 68.796875 C 39.730469 68.277344 39.328125 67.742188 38.957031 67.183594 C 38.582031 66.625 38.238281 66.054688 37.921875 65.460938 C 37.605469 64.871094 37.320312 64.265625 37.0625 63.648438 C 36.804688 63.03125 36.578125 62.398438 36.382812 61.757812 C 36.1875 61.117188 36.027344 60.46875 35.894531 59.8125 C 35.765625 59.15625 35.667969 58.492188 35.601562 57.828125 C 35.535156 57.160156 35.5 56.492188 35.5 55.824219 C 35.5 55.152344 35.535156 54.484375 35.601562 53.816406 C 35.667969 53.152344 35.765625 52.488281 35.894531 51.832031 C 36.027344 51.175781 36.1875 50.527344 36.382812 49.886719 C 36.578125 49.246094 36.804688 48.617188 37.0625 47.996094 C 37.320312 47.378906 37.605469 46.773438 37.921875 46.183594 C 38.238281 45.59375 38.582031 45.019531 38.957031 44.460938 C 39.328125 43.90625 39.730469 43.367188 40.15625 42.851562 C 40.582031 42.332031 41.03125 41.835938 41.503906 41.363281 C 41.980469 40.890625 42.476562 40.441406 42.996094 40.015625 C 43.515625 39.589844 44.054688 39.191406 44.613281 38.820312 C 45.171875 38.449219 45.746094 38.105469 46.335938 37.789062 C 46.929688 37.472656 47.535156 37.1875 48.15625 36.929688 C 48.777344 36.675781 49.40625 36.449219 50.050781 36.253906 C 50.691406 36.058594 51.34375 35.898438 52 35.765625 C 52.660156 35.636719 53.324219 35.539062 53.992188 35.472656 C 54.660156 35.40625 55.328125 35.375 56 35.375 C 56.671875 35.375 57.34375 35.40625 58.011719 35.472656 C 58.679688 35.539062 59.34375 35.636719 60 35.765625 C 60.660156 35.898438 61.308594 36.058594 61.953125 36.253906 C 62.59375 36.449219 63.226562 36.675781 63.847656 36.929688 C 64.464844 37.1875 65.074219 37.472656 65.664062 37.789062 C 66.257812 38.105469 66.832031 38.449219 67.390625 38.820312 C 67.949219 39.191406 68.488281 39.589844 69.007812 40.015625 C 69.523438 40.441406 70.023438 40.890625 70.496094 41.363281 C 70.972656 41.835938 71.421875 42.332031 71.847656 42.851562 C 72.273438 43.367188 72.671875 43.90625 73.046875 44.460938 C 73.417969 45.019531 73.761719 45.59375 74.082031 46.183594 C 74.398438 46.773438 74.683594 47.378906 74.941406 47.996094 C 75.195312 48.617188 75.421875 49.246094 75.617188 49.886719 C 75.8125 50.527344 75.976562 51.175781 76.105469 51.832031 C 76.238281 52.488281 76.335938 53.152344 76.402344 53.816406 C 76.46875 54.484375 76.5 55.152344 76.5 55.824219 C 76.5 56.492188 76.46875 57.160156 76.402344 57.828125 C 76.339844 58.496094 76.242188 59.15625 76.109375 59.8125 C 75.980469 60.472656 75.816406 61.121094 75.625 61.761719 C 75.429688 62.402344 75.203125 63.03125 74.945312 63.652344 C 74.691406 64.269531 74.402344 64.875 74.085938 65.46875 C 73.769531 66.058594 73.425781 66.632812 73.054688 67.191406 C 72.679688 67.746094 72.28125 68.285156 71.855469 68.800781 C 71.429688 69.320312 70.980469 69.816406 70.503906 70.289062 C 70.027344 70.761719 69.53125 71.210938 69.011719 71.636719 C 68.492188 72.0625 67.953125 72.460938 67.394531 72.832031 C 66.835938 73.207031 66.261719 73.550781 65.667969 73.863281 C 65.078125 74.179688 64.46875 74.464844 63.851562 74.722656 C 63.230469 74.976562 62.597656 75.203125 61.953125 75.398438 C 61.3125 75.589844 60.660156 75.753906 60.003906 75.882812 C 59.34375 76.011719 58.679688 76.109375 58.011719 76.175781 C 57.34375 76.242188 56.671875 76.273438 56 76.273438 Z M 77.34375 39.289062 C 77.03125 39.289062 76.71875 39.257812 76.410156 39.199219 C 76.105469 39.136719 75.804688 39.046875 75.515625 38.925781 C 75.222656 38.804688 74.949219 38.660156 74.6875 38.484375 C 74.425781 38.3125 74.183594 38.113281 73.960938 37.890625 C 73.738281 37.671875 73.539062 37.429688 73.367188 37.167969 C 73.191406 36.910156 73.042969 36.632812 72.921875 36.34375 C 72.804688 36.054688 72.710938 35.757812 72.652344 35.449219 C 72.589844 35.140625 72.558594 34.832031 72.558594 34.515625 C 72.558594 34.203125 72.589844 33.894531 72.648438 33.585938 C 72.710938 33.277344 72.800781 32.980469 72.921875 32.691406 C 73.042969 32.402344 73.1875 32.125 73.363281 31.863281 C 73.539062 31.605469 73.738281 31.363281 73.957031 31.140625 C 74.179688 30.917969 74.421875 30.722656 74.683594 30.546875 C 74.945312 30.375 75.222656 30.226562 75.511719 30.105469 C 75.800781 29.984375 76.101562 29.894531 76.410156 29.835938 C 76.71875 29.773438 77.027344 29.742188 77.34375 29.742188 C 77.65625 29.742188 77.96875 29.773438 78.277344 29.835938 C 78.585938 29.894531 78.882812 29.984375 79.171875 30.105469 C 79.464844 30.226562 79.738281 30.371094 80 30.546875 C 80.261719 30.722656 80.503906 30.917969 80.726562 31.140625 C 80.949219 31.363281 81.148438 31.601562 81.320312 31.863281 C 81.496094 32.125 81.644531 32.398438 81.765625 32.6875 C 81.882812 32.976562 81.976562 33.277344 82.035156 33.585938 C 82.097656 33.890625 82.128906 34.203125 82.128906 34.515625 C 82.128906 34.828125 82.101562 35.140625 82.039062 35.449219 C 81.980469 35.753906 81.890625 36.054688 81.769531 36.34375 C 81.652344 36.632812 81.503906 36.910156 81.332031 37.171875 C 81.15625 37.433594 80.960938 37.671875 80.738281 37.894531 C 80.515625 38.117188 80.273438 38.316406 80.011719 38.492188 C 79.753906 38.664062 79.476562 38.8125 79.1875 38.933594 C 78.898438 39.054688 78.597656 39.144531 78.289062 39.207031 C 77.980469 39.269531 77.671875 39.296875 77.355469 39.296875 Z M 100 -0.0390625 L 12.003906 -0.0390625 C 11.214844 -0.0390625 10.433594 0.0390625 9.660156 0.191406 C 8.886719 0.34375 8.136719 0.570312 7.410156 0.871094 C 6.683594 1.171875 5.992188 1.542969 5.335938 1.980469 C 4.679688 2.414062 4.074219 2.910156 3.515625 3.46875 C 2.960938 4.023438 2.460938 4.628906 2.023438 5.28125 C 1.585938 5.933594 1.21875 6.625 0.914062 7.351562 C 0.613281 8.078125 0.386719 8.824219 0.234375 9.597656 C 0.078125 10.367188 0.00390625 11.144531 0.00390625 11.933594 L 0.00390625 99.714844 C 0.00390625 100.5 0.078125 101.277344 0.234375 102.046875 C 0.386719 102.820312 0.613281 103.566406 0.914062 104.292969 C 1.21875 105.019531 1.585938 105.710938 2.023438 106.363281 C 2.460938 107.015625 2.960938 107.621094 3.515625 108.179688 C 4.074219 108.734375 4.679688 109.230469 5.335938 109.667969 C 5.992188 110.101562 6.683594 110.472656 7.410156 110.773438 C 8.136719 111.074219 8.886719 111.300781 9.660156 111.453125 C 10.433594 111.605469 11.214844 111.683594 12.003906 111.683594 L 100 111.683594 C 100.789062 111.683594 101.570312 111.605469 102.339844 111.453125 C 103.113281 111.300781 103.863281 111.074219 104.59375 110.773438 C 105.320312 110.472656 106.011719 110.101562 106.667969 109.667969 C 107.320312 109.230469 107.929688 108.734375 108.484375 108.179688 C 109.042969 107.621094 109.539062 107.015625 109.976562 106.363281 C 110.414062 105.710938 110.785156 105.019531 111.085938 104.292969 C 111.386719 103.566406 111.617188 102.820312 111.769531 102.046875 C 111.921875 101.277344 112 100.5 112 99.714844 L 112 11.933594 C 112 11.144531 111.921875 10.367188 111.769531 9.597656 C 111.617188 8.824219 111.386719 8.078125 111.085938 7.351562 C 110.785156 6.625 110.414062 5.933594 109.976562 5.28125 C 109.539062 4.628906 109.042969 4.023438 108.484375 3.46875 C 107.929688 2.910156 107.320312 2.414062 106.667969 1.980469 C 106.011719 1.542969 105.320312 1.171875 104.59375 0.871094 C 103.863281 0.570312 103.113281 0.34375 102.339844 0.191406 C 101.570312 0.0390625 100.789062 -0.0390625 100 -0.0390625 Z M 95.71875 72.28125 C 95.398438 78.671875 93.933594 84.335938 89.257812 88.988281 C 84.582031 93.644531 78.90625 95.132812 72.507812 95.4375 C 65.90625 95.808594 46.109375 95.808594 39.507812 95.4375 C 33.101562 95.113281 27.445312 93.652344 22.757812 88.988281 C 18.074219 84.328125 16.601562 78.660156 16.296875 72.28125 C 15.925781 65.691406 15.925781 45.945312 16.296875 39.363281 C 16.621094 32.972656 18.0625 27.308594 22.757812 22.65625 C 27.453125 18 33.125 16.53125 39.507812 16.226562 C 46.109375 15.855469 65.90625 15.855469 72.507812 16.226562 C 78.914062 16.546875 84.589844 18.007812 89.257812 22.671875 C 93.925781 27.335938 95.414062 33 95.71875 39.394531 C 96.09375 45.957031 96.09375 65.6875 95.71875 72.28125 Z M 95.71875 72.28125 " fill-opacity="1" fill-rule="nonzero"/></svg>