<svg xmlns="http://www.w3.org/2000/svg" xmlns:xlink="http://www.w3.org/1999/xlink" width="150" zoomAndPan="magnify" viewBox="0 0 112.5 112.499997" height="150" preserveAspectRatio="xMidYMid meet" version="1.0"><defs><clipPath id="682259ea68"><path d="M 0 0 L 112.003906 0 L 112.003906 112.003906 L 0 112.003906 Z M 0 0 " clip-rule="nonzero"/></clipPath></defs><g clip-path="url(#682259ea68)"><path fill="#000000" d="M 98.316406 0 C 105.871094 0 112.003906 6.132812 112.003906 13.683594 L 112.003906 98.316406 C 112.003906 105.871094 105.871094 112.003906 98.316406 112.003906 L 13.683594 112.003906 C 6.132812 112.003906 0 105.871094 0 98.316406 L 0 13.683594 C 0 6.132812 6.132812 0 13.683594 0 Z M 35.101562 92.59375 L 35.101562 43.21875 L 18.6875 43.21875 L 18.6875 92.59375 Z M 94.28125 92.59375 L 94.28125 64.277344 C 94.28125 49.113281 86.183594 42.054688 75.386719 42.054688 C 66.679688 42.054688 62.777344 46.84375 60.59375 50.207031 L 60.59375 43.21875 L 44.183594 43.21875 C 44.402344 47.851562 44.183594 92.59375 44.183594 92.59375 L 60.59375 92.59375 L 60.59375 65.019531 C 60.59375 63.542969 60.703125 62.066406 61.136719 61.011719 C 62.320312 58.0625 65.023438 55.011719 69.558594 55.011719 C 75.492188 55.011719 77.871094 59.539062 77.871094 66.175781 L 77.871094 92.59375 Z M 27.003906 19.410156 C 21.386719 19.410156 17.71875 23.101562 17.71875 27.941406 C 17.71875 32.679688 21.277344 36.472656 26.789062 36.472656 L 26.894531 36.472656 C 32.617188 36.472656 36.179688 32.679688 36.179688 27.941406 C 36.074219 23.109375 32.628906 19.417969 27.003906 19.410156 Z M 27.003906 19.410156 " fill-opacity="1" fill-rule="evenodd"/></g></svg>