<svg xmlns="http://www.w3.org/2000/svg" xmlns:xlink="http://www.w3.org/1999/xlink" width="150" zoomAndPan="magnify" viewBox="0 0 112.5 112.499997" height="150" preserveAspectRatio="xMidYMid meet" version="1.0"><defs><clipPath id="897d862cf8"><path d="M 11 0 L 101 0 L 101 112.003906 L 11 112.003906 Z M 11 0 " clip-rule="nonzero"/></clipPath></defs><g clip-path="url(#897d862cf8)"><path fill="#000000" d="M 56.042969 0.0429688 C 31.34375 0.0429688 11.242188 20.140625 11.242188 44.816406 C 11.082031 80.910156 54.34375 110.835938 56.042969 112.046875 C 56.042969 112.046875 101.007812 80.910156 100.84375 44.84375 C 100.84375 20.140625 80.746094 0.0429688 56.042969 0.0429688 Z M 56.042969 67.246094 C 43.667969 67.246094 33.644531 57.222656 33.644531 44.84375 C 33.644531 32.46875 43.667969 22.445312 56.042969 22.445312 C 68.421875 22.445312 78.445312 32.46875 78.445312 44.84375 C 78.445312 57.222656 68.421875 67.246094 56.042969 67.246094 Z M 56.042969 67.246094 " fill-opacity="1" fill-rule="nonzero"/></g></svg>