<svg xmlns="http://www.w3.org/2000/svg" xmlns:xlink="http://www.w3.org/1999/xlink" width="150" zoomAndPan="magnify" viewBox="0 0 112.5 112.499997" height="150" preserveAspectRatio="xMidYMid meet" version="1.0"><path fill="#e7212b" d="M 38.476562 37.121094 C 38.476562 37.121094 17.484375 39.445312 3.480469 41 C 2.21875 41.152344 1.105469 41.996094 0.683594 43.277344 C 0.265625 44.5625 0.683594 45.894531 1.613281 46.738281 C 12.019531 56.234375 27.648438 70.449219 27.648438 70.449219 C 27.636719 70.449219 23.355469 91.128906 20.515625 104.925781 C 20.273438 106.171875 20.726562 107.496094 21.816406 108.285156 C 22.898438 109.078125 24.292969 109.089844 25.390625 108.472656 C 37.640625 101.511719 55.988281 91.042969 55.988281 91.042969 C 55.988281 91.042969 74.339844 101.511719 86.570312 108.476562 C 87.6875 109.089844 89.082031 109.078125 90.164062 108.285156 C 91.253906 107.496094 91.707031 106.171875 91.460938 104.929688 C 88.617188 91.128906 84.34375 70.449219 84.34375 70.449219 C 84.34375 70.449219 99.976562 56.234375 110.378906 46.761719 C 111.308594 45.890625 111.71875 44.554688 111.308594 43.277344 C 110.898438 42.003906 109.78125 41.160156 108.519531 41.015625 C 94.515625 39.445312 73.515625 37.121094 73.515625 37.121094 C 73.515625 37.121094 64.816406 17.871094 59.015625 5.035156 C 58.472656 3.886719 57.328125 3.082031 55.988281 3.082031 C 54.644531 3.082031 53.496094 3.894531 52.976562 5.035156 C 47.171875 17.871094 38.476562 37.121094 38.476562 37.121094 Z M 38.476562 37.121094 " fill-opacity="1" fill-rule="nonzero"/></svg>