<svg xmlns="http://www.w3.org/2000/svg" xmlns:xlink="http://www.w3.org/1999/xlink" width="150" zoomAndPan="magnify" viewBox="0 0 112.5 112.499997" height="150" preserveAspectRatio="xMidYMid meet" version="1.0"><defs><clipPath id="5d7109ef9b"><path d="M 0 0 L 112.003906 0 L 112.003906 112.003906 L 0 112.003906 Z M 0 0 " clip-rule="nonzero"/></clipPath></defs><path fill="#000000" d="M 48.339844 44.261719 L 48.339844 49.375 L 48.34375 66.191406 L 68.554688 55.265625 L 57.453125 49.230469 Z M 48.339844 44.261719 " fill-opacity="1" fill-rule="evenodd"/><g clip-path="url(#5d7109ef9b)"><path fill="#000000" d="M 97.765625 0.00390625 L 14.375 0.00390625 C 6.480469 0.00390625 0.00390625 6.476562 0.00390625 14.375 L 0.00390625 97.765625 C 0.00390625 105.660156 6.480469 112.136719 14.375 112.136719 L 97.765625 112.136719 C 105.664062 112.136719 112.136719 105.660156 112.136719 97.765625 L 112.136719 14.375 C 112.136719 6.476562 105.664062 0.00390625 97.765625 0.00390625 Z M 93.449219 54.183594 L 93.449219 59.011719 C 93.449219 65.332031 92.71875 71.644531 92.71875 71.644531 C 92.71875 71.644531 92 77.019531 89.757812 79.386719 C 86.910156 82.5 83.726562 82.511719 82.269531 82.695312 C 71.789062 83.480469 56.066406 83.511719 56.066406 83.511719 C 56.066406 83.511719 36.609375 83.320312 30.621094 82.722656 C 28.960938 82.402344 25.222656 82.5 22.367188 79.390625 C 20.128906 77.027344 19.421875 71.644531 19.421875 71.644531 C 19.421875 71.644531 18.691406 65.332031 18.691406 59.011719 L 18.691406 53.09375 C 18.691406 46.777344 19.421875 40.464844 19.421875 40.464844 C 19.421875 40.464844 20.140625 35.082031 22.378906 32.714844 C 25.234375 29.609375 28.410156 29.644531 29.875 29.46875 C 40.34375 28.679688 56.054688 28.738281 56.054688 28.738281 L 56.085938 28.738281 C 56.085938 28.738281 71.792969 28.679688 82.273438 29.464844 C 83.730469 29.644531 86.921875 29.636719 89.765625 32.742188 C 92.011719 35.105469 92.71875 40.476562 92.71875 40.476562 C 92.71875 40.476562 93.449219 46.777344 93.449219 53.09375 Z M 93.449219 54.183594 " fill-opacity="1" fill-rule="evenodd"/></g></svg>